<?xml version="1.0" encoding="utf-8"?>
<!-- Generator: Adobe Illustrator 24.0.1, SVG Export Plug-In . SVG Version: 6.00 Build 0)  -->
<svg version="1.1" id="a0d5aaae-4f89-427e-ba4a-5b05a3e87ad1"
	 xmlns="http://www.w3.org/2000/svg" xmlns:xlink="http://www.w3.org/1999/xlink" x="0px" y="0px" viewBox="0 0 321.1 314.1"
	 style="enable-background:new 0 0 321.1 314.1;" xml:space="preserve">
<style type="text/css">
	.st0{fill-rule:evenodd;clip-rule:evenodd;fill:#FFFFFF;}
	.st1{fill:#FFFFFF;}
	.st2{fill:#FFEC35;}
</style>
<title>viruscape_logo</title>
<path class="st0" d="M155.9,181.3c30.6,17.5,69.6,7.6,88.1-22.4c-8.1,11.2-21.1,17.9-34.9,18c-23.7-0.1-42.9-19.3-42.9-42.9
	c-0.1-6.3,1.3-12.5,4-18.1l-6.6-3.6c-4.5,3.6-10.9,3.6-15.3,0l-6.6,3.6c2.7,5.7,4.1,11.9,4,18.1c-0.1,23.7-19.3,42.9-42.9,42.9
	c-13.8-0.1-26.8-6.8-34.9-18C86.3,188.9,125.3,198.8,155.9,181.3L155.9,181.3z"/>
<path class="st0" d="M152.3,91.6c-5,1.6-8.4,6.2-8.4,11.5c0,1.2,0.3,2.5,0.7,3.6l-6.1,3.7c-13-19.8-39.5-25.4-59.4-12.4
	c-12.1,7.9-19.4,21.5-19.4,35.9c0.1,3,0.3,6,0.7,9c-2.1-6.2-3.2-12.7-3.2-19.2c0.1-23.3,12.4-44.9,32.4-56.9
	C89.6,44,100.6,22,120.7,9.3c7.6-4.8,16.2-8,25.2-9.3c-4.5,1.1-8.9,2.9-12.9,5.3c-19.8,12.4-25.9,39.2-13.4,59.1
	c7.2,11.3,19.3,18.7,32.8,19.8L152.3,91.6z"/>
<path class="st0" d="M159.2,91.6c5,1.6,8.4,6.2,8.4,11.5c0,1.2-0.3,2.5-0.7,3.6l6.1,3.7c13-19.8,39.5-25.4,59.4-12.4
	c12.1,7.9,19.4,21.5,19.4,35.9c-0.1,3-0.3,6-0.7,9c2.1-6.2,3.2-12.7,3.2-19.2c-0.1-23.3-12.4-44.9-32.4-56.9
	C222,44,210.9,22,190.8,9.3c-7.6-4.8-16.2-8-25.2-9.3c4.5,1.1,8.9,2.9,12.9,5.3c19.8,12.4,25.9,39.2,13.4,59.1
	c-7.2,11.3-19.3,18.7-32.8,19.8L159.2,91.6z"/>
<path class="st0" d="M102.1,96.9c0.3-0.1,0.5-0.1,0.8-0.1c5.8,0,11.5,1.4,16.6,4.1c0,0.9-0.1,1.5-0.1,2.1c0,13.7,7.8,26.2,20,32.4
	c-0.2,6.1-2.1,12.1-5.5,17.1c-19.4-8.8-32-28.1-32.1-49.4C101.9,101,102,99.1,102.1,96.9L102.1,96.9z"/>
<path class="st0" d="M209.4,97.4c-0.3-0.1-0.5-0.1-0.8-0.1c-5.8,0-11.5,1.4-16.6,4.1c0,0.9,0.1,1.5,0.1,2.1c0,13.7-7.8,26.2-20,32.4
	c0.2,6.1,2.1,12.1,5.5,17.1c19.4-8.8,32-28.1,32.1-49.4C209.7,101.6,209.5,99.6,209.4,97.4L209.4,97.4z"/>
<path class="st0" d="M188.2,59c-0.1,0.2-0.2,0.5-0.3,0.7c-2.7,5.1-6.7,9.4-11.6,12.5c-0.7-0.5-1.3-0.8-1.7-1.1
	c-12.1-6.6-26.8-5.8-38.1,2.1c-5.3-3.1-9.6-7.6-12.4-13.1c16.7-12.5,39.7-14.9,58.7-4.4C184.8,56.7,186.4,57.8,188.2,59z"/>
<path class="st1" d="M25.4,195.1h5.5L20,265.9h-9.2L0,195.1h5.5l9.9,64.8h0.2L25.4,195.1z"/>
<path class="st1" d="M37.5,265.9v-70.9h5.5v70.9L37.5,265.9z"/>
<path class="st1" d="M80.2,265.9h-5.5v-23.5c0-5.1-4.1-9.2-9.1-9.2c0,0-0.1,0-0.1,0h-6.6v32.7h-5.5v-70.9h12.1
	c8.1,0,14.7,6.6,14.7,14.7v8.7c0,4.8-2.3,9.2-6.2,12c3.8,2.8,6.1,7.2,6.2,12V265.9z M65.5,227.7c5.1,0,9.2-4.1,9.2-9.1
	c0,0,0-0.1,0-0.1v-8.7c0-5.1-4.1-9.2-9.1-9.2c0,0-0.1,0-0.1,0h-6.6v27.2H65.5z"/>
<path class="st1" d="M116.6,195.1v58.3c0,7.5-6.1,13.7-13.6,13.7s-13.7-6.1-13.7-13.6c0,0,0,0,0,0v-58.3h5.5v58.3
	c0,4.5,3.7,8.2,8.2,8.2s8.2-3.7,8.2-8.2c0,0,0,0,0,0v-58.3H116.6z"/>
<g>
	
		<image style="overflow:visible;opacity:0.75;" width="114" height="219" xlink:href="714DF85FCC206E3B.png"  transform="matrix(1 0 0 1 99.4882 116.5468)">
	</image>
	<g>
		<path class="st2" d="M132.2,209.2c0,0-7.2-8.7-7.2-20.2v-10.8c0-17.3,14-31.3,31.3-31.3c17.3,0,31.3,14,31.3,31.3v20.2l-12.5,1.4
			v-21.6c0-10.4-8.4-18.8-18.7-18.8c-10.4,0-18.8,8.4-18.8,18.7c0,0,0,0,0,0V189c0.1,4.4,1.6,8.6,4.3,12l38.2,45.5
			c0,0,7.5,8.9,7.5,20.7v15.6c0,17.3-14,31.3-31.3,31.3c-17.3,0-31.3-14-31.3-31.3l0,0V259l12.5-1.4v25.3c0,10.4,8.4,18.8,18.7,18.8
			c10.4,0,18.8-8.4,18.8-18.7c0,0,0,0,0,0v-15.6c0-7-4.6-12.5-4.6-12.5L132.2,209.2z"/>
	</g>
</g>
<path class="st1" d="M215.2,218.8v-11.1c0-4.5-3.7-8.2-8.2-8.2s-8.2,3.7-8.2,8.2v45.7c0,4.5,3.7,8.2,8.2,8.2s8.2-3.7,8.2-8.2v-9.7
	h5.5v9.7c0,7.5-6.1,13.6-13.6,13.7c-7.5,0-13.6-6.1-13.7-13.6c0,0,0,0,0,0v-45.7c0-7.5,6.1-13.6,13.6-13.7c7.5,0,13.6,6.1,13.7,13.6
	c0,0,0,0,0,0v10.5L215.2,218.8z"/>
<path class="st1" d="M256.5,265.9H251l-2.8-18.2h-14.4l-2.7,18.2h-5.5l10.8-70.9h9.2L256.5,265.9z M234.6,242.3h12.7l-6.2-41.1h-0.2
	L234.6,242.3z"/>
<path class="st1" d="M268.5,235.1v30.9h-5.5v-70.9h12.1c8.1,0,14.7,6.6,14.7,14.7v10.6c0,8.1-6.6,14.7-14.7,14.7L268.5,235.1z
	 M275.1,229.6c5.1,0,9.2-4.1,9.2-9.1c0,0,0-0.1,0-0.1v-10.6c0-5.1-4.1-9.2-9.1-9.2c0,0-0.1,0-0.1,0h-6.6v29.1L275.1,229.6z"/>
<path class="st1" d="M303.1,200.5v27.2h12.7v5.6h-12.7v27.2h18.1v5.5h-23.5v-70.9h22.7v5.5L303.1,200.5z"/>
</svg>
